HIERARCHY
ROOT RootJoint
{
    OFFSET   0.000000   0.000000   0.000000
    CHANNELS 6 Xposition Yposition Zposition Xrotation Yrotation Zrotation
    JOINT pelvis_lowerback
    {
        OFFSET   0.000000   0.093605   0.000000
        CHANNELS 3 Xrotation Yrotation Zrotation
        JOINT lowerback_torso
        {
            OFFSET   0.000000   0.100000   0.000000
            CHANNELS 3 Xrotation Yrotation Zrotation
            JOINT torso_head
            {
                OFFSET   0.000000   0.282350   0.000000
                CHANNELS 3 Xrotation Yrotation Zrotation
                End Site
                {
                    OFFSET   0.000000   0.192650   0.000000
                }
            }
            JOINT rTorso_Clavicle
            {
                OFFSET  -0.001000   0.157500   0.000000
                CHANNELS 3 Xrotation Yrotation Zrotation
                JOINT rShoulder
                {
                    OFFSET  -0.117647   0.000000   0.000000
                    CHANNELS 3 Xrotation Yrotation Zrotation
                    JOINT rElbow
                    {
                        OFFSET  -0.245000   0.000000   0.000000
                        CHANNELS 3 Xrotation Yrotation Zrotation
                        JOINT rWrist
                        {
                            OFFSET  -0.240000   0.000000   0.000000
                            CHANNELS 3 Xrotation Yrotation Zrotation
                            End Site
                            {
                                OFFSET  -0.116353  -0.002500   0.000000
                            }
                        }
                    }
                }
            }
            JOINT lTorso_Clavicle
            {
                OFFSET   0.001000   0.157500   0.000000
                CHANNELS 3 Xrotation Yrotation Zrotation
                JOINT lShoulder
                {
                    OFFSET   0.117647   0.000000   0.000000
                    CHANNELS 3 Xrotation Yrotation Zrotation
                    JOINT lElbow
                    {
                        OFFSET   0.245000   0.000000   0.000000
                        CHANNELS 3 Xrotation Yrotation Zrotation
                        JOINT lWrist
                        {
                            OFFSET   0.240000   0.000000   0.000000
                            CHANNELS 3 Xrotation Yrotation Zrotation
                            End Site
                            {
                                OFFSET   0.116353  -0.002500   0.000000
                            }
                        }
                    }
                }
            }
        }
    }
    JOINT rHip
    {
        OFFSET  -0.100000  -0.051395   0.000000
        CHANNELS 3 Xrotation Yrotation Zrotation
        JOINT rKnee
        {
            OFFSET   0.000000  -0.410000   0.000000
            CHANNELS 3 Xrotation Yrotation Zrotation
            JOINT rAnkle
            {
                OFFSET   0.000000  -0.390000   0.000000
                CHANNELS 3 Xrotation Yrotation Zrotation
                JOINT rToeJoint
                {
                    OFFSET   0.000000  -0.050000   0.130000
                    CHANNELS 3 Xrotation Yrotation Zrotation
                    End Site
                    {
                        OFFSET  -0.010000   0.002000   0.060000
                    }
                }
            }
        }
    }
    JOINT lHip
    {
        OFFSET   0.100000  -0.051395   0.000000
        CHANNELS 3 Xrotation Yrotation Zrotation
        JOINT lKnee
        {
            OFFSET   0.000000  -0.410000   0.000000
            CHANNELS 3 Xrotation Yrotation Zrotation
            JOINT lAnkle
            {
                OFFSET   0.000000  -0.390000   0.000000
                CHANNELS 3 Xrotation Yrotation Zrotation
                JOINT lToeJoint
                {
                    OFFSET   0.000000  -0.050000   0.130000
                    CHANNELS 3 Xrotation Yrotation Zrotation
                    End Site
                    {
                        OFFSET   0.010000   0.002000   0.060000
                    }
                }
            }
        }
    }
}
MOTION
Frames: 10
Frame Time:   0.008333
 -2.112243   0.928419   3.561632 155.585309 -58.389962 165.855435   6.353532  -7.917468   6.168551  -0.761378  -2.648240   4.873121  -7.060999 -11.140267  -2.683229   3.477548   8.652462  -2.728111  -0.859565   6.365864  38.719386   0.012941  52.161183  -0.013139  -1.210811   3.185335  -3.887258   8.158943  -4.761277  -1.010700  14.790246 -22.094503 -31.169969  -0.054520 -81.410363  -0.085771   0.427297  -5.332707   3.970067 -36.334184 -23.205496 -15.518265  22.038011  -0.003315  -0.003573   5.804897 -17.496204  -5.428193 -15.659989  -0.017249   0.010942 -16.243902  24.839385   4.905319  20.996066  -0.025771  -0.028700  20.802227  33.266304  -9.868168 -36.173715   0.009321   0.051540
 -2.113076   0.927469   3.557665 155.849034 -57.921749 166.747987   6.182034  -7.999274   6.198826  -0.809548  -2.811976   4.897481  -7.180416 -11.087579  -2.928198   3.421836   8.115213  -2.825236  -1.393080   5.383844  37.556214   0.037245  51.173698  -0.038432  -1.130941   3.591779  -3.709033   8.044455  -4.712528  -1.163805  14.811917 -21.480395 -30.746100  -0.003682 -79.528573  -0.050006   0.626183  -6.101157   3.674196 -36.166316 -22.315590 -15.598984  22.316017  -0.002734  -0.002401   4.022429 -17.290011  -5.783428 -13.644935  -0.015452   0.013676 -17.011442  24.286742   5.230801  23.246043  -0.038208  -0.039107  21.452285  31.862736 -10.395079 -36.067242   0.007318   0.039176
 -2.113874   0.926775   3.554016 156.186760 -57.530112 167.767157   6.080181  -8.054013   6.222355  -0.807093  -2.988022   4.870353  -7.277853 -11.027797  -3.159551   3.343072   7.544676  -3.029016  -1.917470   4.394815  36.336609   0.055371  50.185661  -0.055990  -1.076250   3.652765  -3.845947   7.899497  -4.665130  -1.288325  14.807259 -20.840314 -30.304092   0.032439 -77.661605  -0.025627   0.783183  -6.299012   3.618505 -35.988144 -21.393979 -15.813486  22.588414  -0.002174  -0.001405   2.442619 -17.053079  -6.083395 -11.793621  -0.013408   0.016603 -17.788225  23.727827   5.483524  25.582688  -0.049048  -0.046265  22.184903  30.375612 -10.941171 -34.839742   0.005102   0.007830
 -2.114757   0.926157   3.550538 156.562471 -57.133160 168.818568   5.993097  -8.091377   6.262410  -0.781403  -3.150854   4.825823  -7.353821 -10.970004  -3.373252   3.262566   6.964978  -3.307591  -2.421871   3.441711  35.124443   0.067120  49.246497  -0.066791  -1.030148   3.575245  -4.130623   7.770365  -4.585132  -1.377338  14.807661 -20.208157 -29.878937   0.054866 -75.900299  -0.011131   0.921159  -6.297282   3.638826 -35.806013 -20.522772 -16.056385  22.843268  -0.001738  -0.000784   0.988838 -16.826789  -6.355759 -10.095609  -0.011384   0.017436 -18.494797  23.223585   5.696410  27.860479  -0.057407  -0.050025  23.018690  28.952643 -11.477684 -31.877625  -0.003605  -0.046576
 -2.115685   0.925610   3.547168 156.943432 -56.726202 169.868552   5.908923  -8.123638   6.301867  -0.751902  -3.301763   4.776679  -7.418263 -10.915700  -3.569664   3.183705   6.393296  -3.616150  -2.907076   2.537913  33.949746   0.073624  48.361913  -0.072543  -0.989639   3.442704  -4.488957   7.658784  -4.481280  -1.442095  14.813851 -19.593801 -29.475461   0.068354 -74.248515  -0.002404   1.048930  -6.225363   3.682926 -35.629361 -19.706520 -16.313348  23.075413  -0.001413  -0.000443  -0.354183 -16.615058  -6.605553  -8.538902  -0.009579   0.016763 -19.142012  22.752326   5.868942  29.989649  -0.062973  -0.051230  23.768638  27.607338 -11.954416 -29.208179  -0.014290  -0.080932
 -2.116640   0.925124   3.543858 157.319795 -56.307946 170.902863   5.821406  -8.153716   6.336675  -0.724568  -3.442152   4.726672  -7.475211 -10.864903  -3.751243   3.108908   5.839231  -3.930315  -3.372340   1.688557  32.828200   0.076087  47.532223  -0.074622  -0.953543   3.288368  -4.877505   7.561630  -4.363360  -1.490564  14.822911 -19.004061 -29.095722   0.076023 -72.702927   0.003001   1.169364  -6.126112   3.735963 -35.457652 -18.943297 -16.573858  23.286956  -0.001176  -0.000287  -1.601079 -16.416494  -6.835023  -7.111779  -0.008074   0.015178 -19.733516  22.316281   6.024437  31.993587  -0.066577  -0.050577  24.463453  26.359485 -12.378185 -26.673680  -0.026252  -0.102014
 -2.117602   0.924696   3.540598 157.685225 -55.880247 171.914419   5.729750  -8.183349   6.365741  -0.702610  -3.573707   4.677199  -7.527184 -10.817389  -3.919973   3.038865   5.308641  -4.237167  -3.817467   0.894874  31.766556   0.075573  46.755921  -0.074088  -0.921059   3.127837  -5.271961   7.474960  -4.239489  -1.527889  14.831792 -18.443240 -28.739830   0.079735 -71.258718   0.006349   1.283739  -6.018274   3.794992 -35.292836 -18.229523 -16.835022  23.480259  -0.001004  -0.000249  -2.759191 -16.230048  -7.045802  -5.803523  -0.006862   0.013111 -20.275054  21.908243   6.165767  33.867743  -0.068478  -0.048687  25.098300  25.191972 -12.755815 -24.349093  -0.037016  -0.112306
 -2.117773   0.924095   3.537416 158.233661 -55.872995 173.033566   5.836099  -8.283655   6.319140  -0.593806  -3.791601   4.658471  -7.570526 -10.698830  -4.233944   2.678715   4.744135  -4.459130  -4.711277  -0.181517  30.457301   0.102293  45.113262  -0.099205  -0.827198   3.409570  -5.068119   7.148202  -4.283054  -1.604012  14.617144 -17.775537 -28.061150   0.126726 -68.469421   0.034916   1.459091  -6.890356   3.671246 -34.947405 -17.291831 -17.273065  23.935063  -0.000076   0.001877  -3.999333 -15.665598  -7.177254  -4.265172  -0.005379   0.024039 -21.266818  20.996681   6.580590  37.096417  -0.085672  -0.050550  23.698741  23.800517 -12.924206 -21.973845  -0.040366  -0.124981
 -2.117689   0.923537   3.534262 158.822256 -55.945859 174.217536   5.974679  -8.369243   6.200148  -0.461736  -4.018750   4.575072  -7.601161 -10.580235  -4.544013   2.319669   4.148300  -4.759759  -5.579770  -1.243286  29.111483   0.121336  43.512938  -0.113922  -0.773371   3.321827  -5.135181   6.808441  -4.301556  -1.603341  14.400767 -17.057249 -27.336736   0.159880 -65.738228   0.055729   1.594619  -7.094627   3.760675 -34.604024 -16.362889 -17.788049  24.441576   0.000819   0.003967  -5.194766 -15.100501  -7.271975  -3.117554  -0.003954   0.029764 -22.286378  20.097352   7.094281  40.277125  -0.101627  -0.044818  22.399033  22.504659 -13.113238 -19.888674  -0.045013  -0.125128
 -2.117480   0.923098   3.531142 159.405571 -56.044264 175.429481   6.106239  -8.448991   6.025575  -0.331915  -4.236358   4.437542  -7.622442 -10.468023  -4.841921   1.977745   3.542245  -5.115561  -6.411845  -2.255217  27.781244   0.132539  42.002085  -0.120333  -0.732621   3.096964  -5.341364   6.491696  -4.276337  -1.556494  14.197300 -16.339594 -26.628895   0.177857 -63.161342   0.068260   1.710147  -7.045691   3.950991 -34.280496 -15.484453 -18.351547  24.931408   0.001454   0.005395  -6.308264 -14.572981  -7.348077  -2.075401  -0.002708   0.032748 -23.282852  19.227887   7.669274  43.247073  -0.113961  -0.034426  21.196520  21.299975 -13.321261 -17.979686  -0.049171  -0.118594
